Coordinates
version=1
nRows=13
nColumns=40
inDegrees=yes

Units are S.I. units (second, meters, Newtons, ...)
If the header above contains a line with 'inDegrees', this indicates whether rotational values are in degrees (yes) or radians (no).

endheader
time	pelvis_tilt	pelvis_list	pelvis_rotation	pelvis_tx	pelvis_ty	pelvis_tz	hip_flexion_r	hip_adduction_r	hip_rotation_r	knee_angle_r	knee_angle_r_beta	ankle_angle_r	subtalar_angle_r	mtp_angle_r	hip_flexion_l	hip_adduction_l	hip_rotation_l	knee_angle_l	knee_angle_l_beta	ankle_angle_l	subtalar_angle_l	mtp_angle_l	lumbar_extension	lumbar_bending	lumbar_rotation	arm_flex_r	arm_add_r	arm_rot_r	elbow_flex_r	pro_sup_r	wrist_flex_r	wrist_dev_r	arm_flex_l	arm_add_l	arm_rot_l	elbow_flex_l	pro_sup_l	wrist_flex_l	wrist_dev_l
      6.10000000	    -43.85775093	      2.67816380	      4.26547468	      0.01844458	      0.65309454	     -1.16132793	    105.50931643	    -39.50833378	     -0.58758110	     76.28578906	      1.33143819	     10.33617479	     -4.35540639	      0.00000000	     99.95722868	    -29.53615524	     -7.05789401	     67.59281276	      1.17971713	      5.58510736	      4.47626581	      0.00000000	      0.00000000	      0.00000000	      0.00000000	     44.99990632	    -15.00000058	     44.99990632	     75.00017585	     45.00000026	      0.00000000	      0.00000000	     44.99990632	    -15.00000058	     44.99990632	     75.00017585	     45.00000026	      0.00000000	      0.00000000
      6.10500000	    -43.72665854	      2.68418043	      4.25015966	      0.01892750	      0.65380284	     -1.16132899	    105.27088235	    -39.53364731	     -0.68735474	     76.22956217	      1.33045685	     10.31956397	     -4.34718515	      0.00000000	     99.72641688	    -29.53356476	     -7.08537112	     67.51253421	      1.17831601	      5.55130639	      4.39449592	      0.00000000	      0.00000000	      0.00000000	      0.00000000	     44.99990637	    -15.00000058	     44.99990637	     75.00017585	     45.00000026	      0.00000000	      0.00000000	     44.99990637	    -15.00000058	     44.99990637	     75.00017585	     45.00000026	      0.00000000	      0.00000000
      6.11000000	    -43.72622630	      2.71151860	      4.23547171	      0.01934311	      0.65406953	     -1.16133108	    105.23004086	    -39.52109767	     -0.67046399	     76.20164564	      1.32996961	     10.32953218	     -4.29193043	      0.00000000	     99.65120223	    -29.56204714	     -7.14608694	     67.49726561	      1.17804952	      5.59468013	      4.45538570	      0.00000000	      0.00000000	      0.00000000	      0.00000000	     44.99990644	    -15.00000058	     44.99990644	     75.00017585	     45.00000026	      0.00000000	      0.00000000	     44.99990644	    -15.00000058	     44.99990644	     75.00017585	     45.00000026	      0.00000000	      0.00000000
      6.11500000	    -43.57947289	      2.71518040	      4.22993977	      0.01989484	      0.65480513	     -1.16142251	    104.96203657	    -39.56230893	     -0.76712641	     76.12398751	      1.32861422	     10.31014456	     -4.28261475	      0.00000000	     99.41455258	    -29.55507805	     -7.18551854	     67.45073801	      1.17723746	      5.57882891	      4.40624781	      0.00000000	      0.00000000	      0.00000000	      0.00000000	     44.99990649	    -15.00000057	     44.99990649	     75.00017585	     45.00000026	      0.00000000	      0.00000000	     44.99990649	    -15.00000057	     44.99990649	     75.00017585	     45.00000026	      0.00000000	      0.00000000
      6.12000000	    -43.42103892	      2.70598610	      4.22670725	      0.02054295	      0.65554423	     -1.16153143	    104.68161960	    -39.62801782	     -0.90046141	     76.06784369	      1.32763433	     10.23721764	     -4.24964479	      0.00000000	     99.17240173	    -29.56211414	     -7.24400897	     67.41356077	      1.17658860	      5.54612639	      4.33865875	      0.00000000	      0.00000000	      0.00000000	      0.00000000	     44.99990654	    -15.00000057	     44.99990654	     75.00017585	     45.00000026	      0.00000000	      0.00000000	     44.99990654	    -15.00000057	     44.99990654	     75.00017585	     45.00000026	      0.00000000	      0.00000000
      6.12500000	    -43.39790821	      2.70282448	      4.23040109	      0.02097727	      0.65588647	     -1.16161160	    104.57229043	    -39.62954431	     -0.90478255	     76.03763352	      1.32710706	     10.39911540	     -4.23093580	      0.00000000	     99.07347943	    -29.53920149	     -7.22739901	     67.36274946	      1.17570177	      5.68082029	      4.48226040	      0.00000000	      0.00000000	      0.00000000	      0.00000000	     44.99990660	    -15.00000057	     44.99990660	     75.00017585	     45.00000026	      0.00000000	      0.00000000	     44.99990660	    -15.00000057	     44.99990660	     75.00017585	     45.00000026	      0.00000000	      0.00000000
      6.13000000	    -43.23420774	      2.70608858	      4.22227979	      0.02166240	      0.65664051	     -1.16174447	    104.28715466	    -39.69167495	     -1.02675801	     75.96496312	      1.32583872	     10.30043769	     -4.18549411	      0.00000000	     98.82857187	    -29.54417864	     -7.27612102	     67.35168991	      1.17550875	      5.63474442	      4.40901208	      0.00000000	      0.00000000	      0.00000000	      0.00000000	     44.99990664	    -15.00000057	     44.99990664	     75.00017585	     45.00000026	      0.00000000	      0.00000000	     44.99990664	    -15.00000057	     44.99990664	     75.00017585	     45.00000026	      0.00000000	      0.00000000
      6.13500000	    -43.07880986	      2.69915947	      4.21666718	      0.02231816	      0.65737300	     -1.16188641	    104.00035841	    -39.73766200	     -1.12345856	     75.89615867	      1.32463786	     10.23430471	     -4.15242480	      0.00000000	     98.59727551	    -29.54346785	     -7.31038536	     67.32565273	      1.17505431	      5.60590640	      4.34761003	      0.00000000	      0.00000000	      0.00000000	      0.00000000	     44.99990669	    -15.00000056	     44.99990669	     75.00017585	     45.00000026	      0.00000000	      0.00000000	     44.99990669	    -15.00000056	     44.99990669	     75.00017585	     45.00000026	      0.00000000	      0.00000000
      6.14000000	    -42.93931479	      2.69216033	      4.21414424	      0.02298023	      0.65807958	     -1.16204688	    103.73081838	    -39.78743616	     -1.22330262	     75.82757988	      1.32344093	     10.19677983	     -4.12790000	      0.00000000	     98.37809251	    -29.53942383	     -7.34814487	     67.29721044	      1.17455790	      5.59179529	      4.30111425	      0.00000000	      0.00000000	      0.00000000	      0.00000000	     44.99990674	    -15.00000056	     44.99990674	     75.00017585	     45.00000026	      0.00000000	      0.00000000	     44.99990674	    -15.00000056	     44.99990674	     75.00017585	     45.00000026	      0.00000000	      0.00000000
      6.14500000	    -42.81193864	      2.68408935	      4.21429318	      0.02365522	      0.65876700	     -1.16222056	    103.47106475	    -39.83663469	     -1.31956187	     75.75898745	      1.32224377	     10.17750498	     -4.10737756	      0.00000000	     98.16895717	    -29.53286431	     -7.38567152	     67.26777024	      1.17404407	      5.58872804	      4.26700446	      0.00000000	      0.00000000	      0.00000000	      0.00000000	     44.99990679	    -15.00000056	     44.99990679	     75.00017585	     45.00000026	      0.00000000	      0.00000000	     44.99990679	    -15.00000056	     44.99990679	     75.00017585	     45.00000026	      0.00000000	      0.00000000
      6.15000000	    -42.69374761	      2.67576823	      4.21602366	      0.02433944	      0.65944158	     -1.16240438	    103.21914517	    -39.88462692	     -1.41207865	     75.68992323	      1.32103837	     10.16985434	     -4.08794349	      0.00000000	     97.96733746	    -29.52420917	     -7.42157950	     67.23804923	      1.17352534	      5.59387769	      4.24338863	      0.00000000	      0.00000000	      0.00000000	      0.00000000	     44.99990684	    -15.00000056	     44.99990684	     75.00017585	     45.00000026	      0.00000000	      0.00000000	     44.99990684	    -15.00000056	     44.99990684	     75.00017585	     45.00000026	      0.00000000	      0.00000000
      6.15500000	    -42.58359030	      2.66720842	      4.21918836	      0.02503247	      0.66010840	     -1.16259728	    102.97377319	    -39.93197051	     -1.50187058	     75.62000686	      1.31981810	     10.16966177	     -4.06796122	      0.00000000	     97.77204179	    -29.51421505	     -7.45712036	     67.20803080	      1.17300142	      5.60540233	      4.22891169	      0.00000000	      0.00000000	      0.00000000	      0.00000000	     44.99990688	    -15.00000055	     44.99990688	     75.00017585	     45.00000026	      0.00000000	      0.00000000	     44.99990688	    -15.00000055	     44.99990688	     75.00017585	     45.00000026	      0.00000000	      0.00000000
      6.16000000	    -42.76379810	      2.67189972	      4.21627777	      0.02544899	      0.65981510	     -1.16276467	    103.12145586	    -39.88660496	     -1.37634124	     75.61607066	      1.31974940	     10.45651008	     -3.89749346	      0.00000000	     97.92776423	    -29.52309110	     -7.40188423	     67.27679306	      1.17420155	      5.96005607	      4.72346005	      0.00000000	      0.00000000	      0.00000000	      0.00000000	     44.99990693	    -15.00000055	     44.99990693	     75.00017585	     45.00000026	      0.00000000	      0.00000000	     44.99990693	    -15.00000055	     44.99990693	     75.00017585	     45.00000026	      0.00000000	      0.00000000
